<svg width="715" height="212" viewBox="0 0 715 212" fill="none" xmlns="http://www.w3.org/2000/svg">
<path opacity="0.2" d="M57.6612 25.3961C56.7195 28.6818 57.6305 31.3306 60.3961 33.3388C57.1103 32.3972 54.4622 33.31 52.4533 36.0737C53.3932 32.7886 52.4834 30.1404 49.7184 28.131C53.0036 29.0738 55.6505 28.1604 57.6612 25.3961Z" fill="white"/>
<path opacity="0.2" d="M276.602 10.4241C278.783 11.4403 280.724 11.0986 282.424 9.39755C281.408 11.5776 281.751 13.5187 283.451 15.2192C281.271 14.2042 279.33 14.5451 277.629 16.2457C278.646 14.0661 278.302 12.1258 276.602 10.4241Z" fill="white"/>
<path opacity="0.2" d="M323.193 17.2506C322.683 20.1492 323.701 22.3356 326.251 23.8065C323.352 23.2958 321.166 24.3159 319.695 26.8636C320.204 23.9657 319.186 21.7797 316.638 20.3077C319.536 20.8194 321.72 19.7989 323.193 17.2506Z" fill="white"/>
<path opacity="0.2" d="M431.313 5.6814C430.134 3.36927 428.257 2.3702 425.681 2.68707C427.994 1.50857 428.991 -0.369568 428.676 -2.94447C429.855 -0.633581 431.731 0.365784 434.307 0.0498721C431.995 1.22741 430.998 3.10525 431.313 5.6814Z" fill="white"/>
<path opacity="0.2" d="M707.739 31.7433C708.353 29.4505 707.688 27.6224 705.743 26.2615C708.036 26.8755 709.864 26.2096 711.225 24.2663C710.612 26.5586 711.276 28.3864 713.22 29.7481C710.928 29.1332 709.101 29.7995 707.739 31.7433Z" fill="white"/>
<path opacity="0.2" d="M99.427 52.1478C101.441 54.4643 103.882 55.0738 106.748 53.973C104.431 55.9874 103.823 58.4286 104.922 61.2937C102.908 58.9788 100.468 58.3687 97.6018 59.4685C99.919 57.4551 100.526 55.0145 99.427 52.1478Z" fill="white"/>
<path opacity="0.2" d="M247.075 63.6594C247.848 60.5578 246.91 58.112 244.259 56.3253C247.361 57.0981 249.806 56.1586 251.594 53.51C250.822 56.611 251.759 59.0563 254.409 60.8441C251.308 60.0701 248.864 61.0102 247.075 63.6594Z" fill="white"/>
<path opacity="0.2" d="M390.018 60.2827C389.216 62.751 389.837 64.785 391.883 66.3821C389.414 65.5805 387.381 66.203 385.783 68.2469C386.584 65.7791 385.963 63.7455 383.918 62.1475C386.386 62.95 388.419 62.327 390.018 60.2827Z" fill="white"/>
<path opacity="0.2" d="M564.982 82.5256C567.055 83.9234 569.103 83.8883 571.126 82.4183C569.728 84.4913 569.764 86.5399 571.233 88.5621C569.16 87.1657 567.112 87.2001 565.089 88.6694C566.487 86.5971 566.45 84.5492 564.982 82.5256Z" fill="white"/>
<path opacity="0.2" d="M670.996 47.1188C673.004 46.1823 673.912 44.6103 673.719 42.4036C674.655 44.4113 676.228 45.3185 678.434 45.1259C676.427 46.0631 675.519 47.6342 675.712 49.8412C674.776 47.8333 673.204 46.9269 670.996 47.1188Z" fill="white"/>
<path opacity="0.2" d="M77.0682 106.704C79.2738 106.275 80.5535 104.951 80.9044 102.732C81.3335 104.938 82.6585 106.216 84.877 106.568C82.6722 106.998 81.3925 108.321 81.0407 110.541C80.6125 108.335 79.2875 107.057 77.0682 106.704Z" fill="white"/>
<path opacity="0.2" d="M272.074 115.566C269.667 115.947 268.23 117.334 267.766 119.726C267.384 117.319 265.996 115.883 263.605 115.418C266.011 115.035 267.448 113.65 267.913 111.257C268.294 113.664 269.682 115.099 272.074 115.566Z" fill="white"/>
<path opacity="0.2" d="M404.409 122.556C403.496 124.815 403.945 126.761 405.756 128.392C403.496 127.479 401.55 127.929 399.92 129.739C400.831 127.48 400.384 125.534 398.573 123.903C400.832 124.816 402.777 124.366 404.409 122.556Z" fill="white"/>
<path opacity="0.2" d="M466.878 125.946C468.873 126.834 470.63 126.493 472.146 124.922C471.258 126.917 471.6 128.674 473.17 130.191C471.175 129.304 469.419 129.644 467.902 131.215C468.791 129.22 468.448 127.464 466.878 125.946Z" fill="white"/>
<path opacity="0.2" d="M606.756 94.4523C608.683 96.5923 610.982 97.124 613.652 96.0445C611.512 97.9719 610.982 100.272 612.06 102.941C610.132 100.803 607.834 100.271 605.163 101.349C607.304 99.4226 607.833 97.1233 606.756 94.4523Z" fill="white"/>
<path opacity="0.2" d="M111.881 127.728C111.091 131.442 112.307 134.308 115.528 136.319C111.813 135.53 108.948 136.747 106.936 139.966C107.723 136.252 106.509 133.388 103.289 131.375C107.003 132.165 109.866 130.947 111.881 127.728Z" fill="white"/>
<path opacity="0.2" d="M226.528 149.079C225.073 147.858 223.523 147.722 221.879 148.672C223.099 147.217 223.234 145.667 222.286 144.023C223.74 145.242 225.29 145.379 226.935 144.43C225.714 145.884 225.579 147.434 226.528 149.079Z" fill="white"/>
<path opacity="0.2" d="M378.931 167.253C379.135 164.92 378.176 163.258 376.053 162.269C378.386 162.472 380.048 161.512 381.038 159.391C380.835 161.723 381.794 163.385 383.916 164.375C381.583 164.171 379.922 165.131 378.931 167.253Z" fill="white"/>
<path opacity="0.2" d="M545.431 131.715C543.946 128.22 541.308 126.569 537.515 126.769C541.011 125.285 542.659 122.645 542.461 118.854C543.947 122.348 546.584 123.998 550.377 123.8C546.881 125.283 545.234 127.922 545.431 131.715Z" fill="white"/>
<path opacity="0.2" d="M677.463 155.9C679.547 158.768 682.294 159.714 685.7 158.737C682.833 160.82 681.888 163.567 682.864 166.973C680.78 164.108 678.035 163.161 674.627 164.137C677.495 162.055 678.439 159.308 677.463 155.9Z" fill="white"/>
<path opacity="0.2" d="M2.21539 204.57C4.0769 205.284 5.66246 204.89 6.97008 203.385C6.25582 205.246 6.65164 206.831 8.15556 208.139C6.29432 207.426 4.70916 207.82 3.40087 209.325C4.1158 207.464 3.71958 205.879 2.21539 204.57Z" fill="white"/>
<path opacity="0.2" d="M266.439 176.204C267.004 174.094 266.393 172.413 264.604 171.161C266.713 171.725 268.395 171.113 269.647 169.325C269.083 171.434 269.694 173.115 271.483 174.368C269.374 173.803 267.693 174.416 266.439 176.204Z" fill="white"/>
<path opacity="0.2" d="M313.471 169.539C312.523 167.678 311.012 166.874 308.939 167.129C310.8 166.18 311.603 164.668 311.349 162.596C312.298 164.456 313.808 165.26 315.881 165.006C314.02 165.954 313.218 167.465 313.471 169.539Z" fill="white"/>
<path opacity="0.2" d="M529.235 204.865C531.995 203.072 533.006 200.572 532.265 197.365C534.058 200.125 536.56 201.135 539.766 200.395C537.007 202.189 535.995 204.688 536.735 207.896C534.943 205.135 532.443 204.126 529.235 204.865Z" fill="white"/>
<path opacity="0.2" d="M697.634 182.956C695.805 184.661 695.379 186.665 696.356 188.966C694.651 187.138 692.646 186.713 690.345 187.689C692.172 185.983 692.6 183.98 691.623 181.678C693.328 183.507 695.331 183.932 697.634 182.956Z" fill="white"/>
</svg>
