<svg width="108" height="32" viewBox="0 0 108 32" fill="none" xmlns="http://www.w3.org/2000/svg">
<g clip-path="url(#clip0)">
<path fill-rule="evenodd" clip-rule="evenodd" d="M-0.365601 -0.330322H2.63846V14.8054H-0.365601V-0.330322ZM13.6494 1.16887V14.8054H10.6453V2.68858H7.62078V14.8054H4.61667V-0.330322H12.1575C12.5663 -0.330322 12.9205 -0.186568 13.2202 0.10095C13.5063 0.402159 13.6494 0.758131 13.6494 1.16887ZM24.6602 -0.330322H15.6276V2.68858H18.6316V14.8054H21.6562V2.68858H24.6602V-0.330322ZM35.6711 2.68858V-0.330322H26.6384V14.8054H35.6711V11.7864H29.6425V8.74701H34.1793V5.72806H29.6425V2.68858H35.6711ZM45.1902 7.22725C45.5989 7.22725 45.9531 7.37788 46.2528 7.67908C46.5389 7.9666 46.682 8.32257 46.682 8.74701V14.8054H43.6779V8.74701H40.6534V14.8054H37.6493V-0.330322H45.1902C45.5989 -0.330322 45.9531 -0.186568 46.2528 0.10095C46.5389 0.402159 46.682 0.758131 46.682 1.16887V5.72806C46.682 6.1388 46.5389 6.49477 46.2528 6.79598C45.9531 7.08349 45.5989 7.22725 45.1902 7.22725ZM43.6779 5.72806V2.68858H40.6534V5.72806H43.6779ZM57.6929 2.68858V-0.330322H48.6602V14.8054H57.6929V11.7864H51.6643V8.74701H56.201V5.72806H51.6643V2.68858H57.6929ZM65.6997 4.20834V2.68858H62.6751V5.72806H67.2119C67.6207 5.72806 67.9749 5.87181 68.2746 6.15933C68.5607 6.46054 68.7038 6.81651 68.7038 7.22725V13.2856C68.7038 13.7101 68.5607 14.066 68.2746 14.3535C67.9749 14.6548 67.6207 14.8054 67.2119 14.8054H61.1833C60.761 14.8054 60.4068 14.6548 60.1207 14.3535C59.821 14.066 59.6711 13.7101 59.6711 13.2856V10.2667H62.6751V11.7864H65.6997V8.74701H61.1833C60.761 8.74701 60.4068 8.60325 60.1207 8.31573C59.821 8.01452 59.6711 7.65168 59.6711 7.22725V1.16887C59.6711 0.758131 59.821 0.402159 60.1207 0.10095C60.4068 -0.186568 60.761 -0.330322 61.1833 -0.330322H67.2119C67.6207 -0.330322 67.9749 -0.186568 68.2746 0.10095C68.5607 0.402159 68.7038 0.758131 68.7038 1.16887V4.20834H65.6997ZM79.7146 -0.330322H70.6819V2.68858H73.686V14.8054H76.7106V2.68858H79.7146V-0.330322ZM81.6928 -0.330322H84.6969V14.8054H81.6928V-0.330322ZM95.7078 1.16887V14.8054H92.7037V2.68858H89.6792V14.8054H86.6751V-0.330322H94.216C94.6247 -0.330322 94.9789 -0.186568 95.2786 0.10095C95.5648 0.402159 95.7078 0.758131 95.7078 1.16887ZM103.715 4.20834V2.68858H100.69V11.7864H103.715V8.74701H102.202V5.72806H106.719V13.2856C106.719 13.7101 106.576 14.066 106.29 14.3535C105.99 14.6548 105.636 14.8054 105.227 14.8054H99.1982C98.7759 14.8054 98.4217 14.6548 98.1356 14.3535C97.8359 14.066 97.686 13.7101 97.686 13.2856V1.16887C97.686 0.758131 97.8359 0.402159 98.1356 0.10095C98.4217 -0.186568 98.7759 -0.330322 99.1982 -0.330322H105.227C105.636 -0.330322 105.99 -0.186568 106.29 0.10095C106.576 0.402159 106.719 0.758131 106.719 1.16887V4.20834H103.715ZM8.6671 20.2134V17.1945H-0.365601V32.3302H10.011L8.84147 29.3113H2.63846V26.2718H7.17527V23.2529H2.63846V20.2134H8.6671ZM19.678 18.6937V32.3302H16.6739V20.2134H13.6494V29.2375V32.3302H11.7097L10.6453 29.2375V17.1945H18.1861C18.5949 17.1945 18.9491 17.3382 19.2488 17.6258C19.5349 17.927 19.678 18.2829 19.678 18.6937ZM27.6848 21.7332V20.2134H24.6602V29.3113H27.6848V26.2718H26.1725V23.2529H30.6888V30.8105C30.6888 31.2349 30.5458 31.5909 30.2597 31.8784C29.9599 32.1796 29.6057 32.3302 29.197 32.3302H23.1684C22.7461 32.3302 22.3918 32.1796 22.1057 31.8784C21.806 31.5909 21.6562 31.2349 21.6562 30.8105V18.6937C21.6562 18.2829 21.806 17.927 22.1057 17.6258C22.3918 17.3382 22.7461 17.1945 23.1684 17.1945H29.197C29.6057 17.1945 29.9599 17.3382 30.2597 17.6258C30.5458 17.927 30.6888 18.2829 30.6888 18.6937V21.7332H27.6848ZM32.667 17.1945H35.6711V32.3302H32.667V17.1945ZM46.682 18.6937V32.3302H43.6779V20.2134H40.6534V32.3302H37.6493V17.1945H45.1902C45.5989 17.1945 45.9531 17.3382 46.2528 17.6258C46.5389 17.927 46.682 18.2829 46.682 18.6937ZM57.6929 20.2134V17.1945H48.6602V32.3302H57.6929V29.3113H51.6643V26.2718H56.201V23.2529H51.6643V20.2134H57.6929ZM68.7038 20.2134V17.1945H59.6711V32.3302H68.7038V29.3113H62.6751V26.2718H67.2119V23.2529H62.6751V20.2134H68.7038ZM78.2228 24.7521C78.6315 24.7521 78.9857 24.9027 79.2855 25.2039C79.5716 25.4914 79.7146 25.8474 79.7146 26.2718V32.3302H76.7106V26.2718H73.686V32.3302H70.6819V17.1945H78.2228C78.6315 17.1945 78.9857 17.3382 79.2855 17.6258C79.5716 17.927 79.7146 18.2829 79.7146 18.6937V23.2529C79.7146 23.6636 79.5716 24.0196 79.2855 24.3208C78.9857 24.6083 78.6315 24.7521 78.2228 24.7521ZM76.7106 23.2529V20.2134H73.686V23.2529H76.7106ZM81.6928 17.1945H84.6969V32.3302H81.6928V17.1945ZM95.7078 18.6937V32.3302H92.7037V20.2134H89.6792V32.3302H86.6751V17.1945H94.216C94.6247 17.1945 94.9789 17.3382 95.2786 17.6258C95.5648 17.927 95.7078 18.2829 95.7078 18.6937ZM103.715 21.7332V20.2134H100.69V29.3113H103.715V26.2718H102.202V23.2529H106.719V30.8105C106.719 31.2349 106.576 31.5909 106.29 31.8784C105.99 32.1796 105.636 32.3302 105.227 32.3302H99.1982C98.7759 32.3302 98.4217 32.1796 98.1356 31.8784C97.8359 31.5909 97.686 31.2349 97.686 30.8105V18.6937C97.686 18.2829 97.8359 17.927 98.1356 17.6258C98.4217 17.3382 98.7759 17.1945 99.1982 17.1945H105.227C105.636 17.1945 105.99 17.3382 106.29 17.6258C106.576 17.927 106.719 18.2829 106.719 18.6937V21.7332H103.715Z" fill="white"/>
</g>
<defs>
<clipPath id="clip0">
<rect width="107.294" height="32" fill="white"/>
</clipPath>
</defs>
</svg>
