<svg width="14" height="22" viewBox="0 0 14 22" fill="none" xmlns="http://www.w3.org/2000/svg">
<path d="M6.87497 16.06C9.45997 16.06 11.55 13.97 11.55 11.385V4.675C11.55 2.09 9.45997 0 6.87497 0C4.28997 0 2.19997 2.09 2.19997 4.675V11.385C2.19997 13.97 4.28997 16.06 6.87497 16.06ZM3.29997 10.78H5.49997C5.82997 10.78 6.04997 10.56 6.04997 10.23C6.04997 9.9 5.82997 9.68 5.49997 9.68H3.29997V8.58H5.49997C5.82997 8.58 6.04997 8.36 6.04997 8.03C6.04997 7.7 5.82997 7.48 5.49997 7.48H3.29997V6.38H5.49997C5.82997 6.38 6.04997 6.16 6.04997 5.83C6.04997 5.5 5.82997 5.28 5.49997 5.28H3.29997V4.675C3.29997 2.695 4.89497 1.1 6.87497 1.1C8.85497 1.1 10.45 2.695 10.45 4.675V5.28H8.24997C7.91997 5.28 7.69997 5.5 7.69997 5.83C7.69997 6.105 7.97497 6.38 8.24997 6.38H10.45V7.48H8.24997C7.91997 7.48 7.69997 7.7 7.69997 8.03C7.69997 8.305 7.97497 8.58 8.24997 8.58H10.45V9.68H8.24997C7.91997 9.68 7.69997 9.9 7.69997 10.23C7.69997 10.505 7.97497 10.78 8.24997 10.78H10.45V11.385C10.45 13.365 8.85497 14.96 6.87497 14.96C4.89497 14.96 3.29997 13.365 3.29997 11.385V10.78Z" fill="white"/>
<path d="M13.75 11.33C13.75 11.055 13.475 10.78 13.2 10.78C12.925 10.78 12.65 11.055 12.65 11.33C12.65 14.52 10.065 17.105 6.875 17.105C3.685 17.105 1.1 14.52 1.1 11.33C1.1 11.055 0.825 10.78 0.55 10.78C0.275 10.78 0 11.055 0 11.33C0 14.96 2.805 17.93 6.325 18.205V20.9H2.75C2.475 20.9 2.2 21.12 2.2 21.45C2.2 21.78 2.475 22 2.75 22H11C11.275 22 11.55 21.78 11.55 21.45C11.55 21.12 11.275 20.9 11 20.9H7.425V18.205C10.945 17.93 13.75 14.96 13.75 11.33Z" fill="white"/>
</svg>
