<svg width="38" height="30" viewBox="0 0 38 30" fill="none" xmlns="http://www.w3.org/2000/svg">
<path style ="fill: #FF9900;" d="M29.8523 25.8464C29.7615 25.8107 29.6001 25.7484 29.4488 25.6771C27.2696 24.6171 25.0804 23.5571 22.9013 22.4793C22.6693 22.3635 22.5482 22.3813 22.3565 22.5416C19.6932 24.8042 17.0197 27.0578 14.3463 29.3026C14.205 29.4184 13.9125 29.5342 13.7611 29.4807C13.5896 29.4273 13.4181 29.1957 13.3778 29.0175C12.4799 25.018 11.6022 21.0095 10.7043 17.0099C10.6741 16.8852 10.5025 16.7427 10.3512 16.6803C7.22378 15.4511 4.08626 14.2396 0.948733 13.0282C0.857937 12.9926 0.76714 12.9569 0.676344 12.9213C0.414043 12.8322 0.252626 12.6897 0.262715 12.4225C0.282892 12.173 0.464485 12.0662 0.706609 11.986C2.37121 11.4426 4.03582 10.8903 5.70042 10.347C15.8394 6.99767 25.9985 3.66619 36.1475 0.325801C36.2282 0.299078 36.3089 0.245632 36.3997 0.245632C36.6217 0.245632 36.884 0.201093 37.0656 0.29017C37.3178 0.40597 37.2673 0.646479 37.2068 0.886987C36.1374 4.74402 35.0781 8.60106 34.0289 12.4581C32.8587 16.7249 31.6884 20.9917 30.5282 25.2585C30.4374 25.5435 30.3567 25.8375 29.8523 25.8464ZM35.633 2.6418C35.6027 2.6329 35.5826 2.61508 35.5523 2.60617C30.2155 8.31601 24.8787 14.0348 19.5116 19.7713C22.8811 21.4103 26.2204 23.0405 29.5799 24.6795C31.6077 17.3039 33.6254 9.97285 35.633 2.6418ZM14.084 27.5299C14.1949 27.3518 14.2555 27.2449 14.316 27.1469C15.5367 24.8398 16.7473 22.5327 17.9781 20.2256C18.1698 19.8693 18.4119 19.5219 18.6944 19.219C23.6075 13.9368 28.5307 8.67232 33.464 3.39896C33.5346 3.31879 33.6052 3.22971 33.6859 3.14954C33.585 3.15845 33.5043 3.19408 33.4438 3.22971C26.281 7.65684 19.1181 12.0929 11.9553 16.52C11.7838 16.6269 11.7132 16.716 11.7636 16.9209C12.3689 19.6377 12.9641 22.3546 13.5594 25.0714C13.7208 25.8642 13.8923 26.657 14.084 27.5299ZM2.18962 12.4759C2.31068 12.5294 2.35104 12.5561 2.39139 12.5739C5.20608 13.6606 8.01069 14.7563 10.8254 15.8519C11.0473 15.941 11.1684 15.8697 11.3298 15.7718C18.4018 11.3981 25.4638 7.0244 32.5358 2.65071C32.6165 2.59727 32.6973 2.54382 32.778 2.48147C32.7679 2.46365 32.7578 2.44584 32.7376 2.42802C22.5785 5.77732 12.4194 9.11771 2.18962 12.4759ZM15.6174 26.8619C15.6376 26.8708 15.6578 26.8886 15.6779 26.8975C17.6553 25.2317 19.6326 23.566 21.6302 21.8735C20.7121 21.4282 19.8344 21.0006 18.9365 20.5641C17.8268 22.6841 16.7272 24.7685 15.6174 26.8619Z" fill="#FF9900"/>
<path style ="fill: #FF9900;" d="M13.8421 29.7124C13.7816 29.7124 13.7211 29.7035 13.6706 29.6857C13.3983 29.5966 13.1763 29.2937 13.1259 29.0621C12.6719 27.0312 12.2078 24.9557 11.7639 22.9604C11.3402 21.0274 10.8963 19.0231 10.4524 17.0545C10.4423 17.0189 10.3414 16.9209 10.2406 16.8853C7.61754 15.8609 4.94409 14.8187 2.36143 13.821L0.75736 13.1975C0.696829 13.1708 0.636298 13.1529 0.575767 13.1262C0.0814305 12.957 -0.00936598 12.6363 0.000722517 12.4047C0.030988 11.9593 0.454705 11.8257 0.616121 11.7722C1.87718 11.3625 3.13825 10.9438 4.39931 10.5252L36.0671 0.112036C36.0873 0.103128 36.1075 0.0942201 36.1276 0.0853124C36.1983 0.0585892 36.2891 0.0140506 36.4 0.0140506C36.4505 0.0140506 36.5009 0.0140506 36.5514 0.00514288C36.7531 -0.00376485 36.9852 -0.0126726 37.1869 0.0853124C37.6207 0.299098 37.5098 0.726669 37.4492 0.931546C36.4 4.71733 35.3912 8.41403 34.2714 12.5027C33.4744 15.4244 32.6774 18.3372 31.8703 21.259L30.7606 25.3031C30.6799 25.6059 30.5588 26.0424 29.8526 26.0602H29.7921L29.7416 26.0335C29.7114 26.0246 29.6811 26.0068 29.6508 25.9979C29.56 25.9623 29.439 25.9088 29.3179 25.8554L28.5512 25.4812C26.6545 24.5548 24.6974 23.6017 22.7705 22.6575C22.6393 22.5951 22.6393 22.5951 22.5283 22.6931C19.5825 25.1873 16.9595 27.3964 14.508 29.4541C14.3667 29.5788 14.0843 29.7124 13.8421 29.7124ZM36.743 0.459437C36.6926 0.459437 36.6321 0.459437 36.5816 0.468345C36.5211 0.468345 36.4606 0.477252 36.4101 0.477252C36.4 0.477252 36.3698 0.495068 36.3496 0.503975C36.3193 0.512883 36.2891 0.530699 36.2487 0.539606L4.5809 10.9438C3.31984 11.3625 2.05878 11.7722 0.787626 12.1909C0.55559 12.2711 0.515236 12.3334 0.505148 12.4314C0.495059 12.5472 0.535413 12.6363 0.75736 12.7076C0.82798 12.7343 0.898599 12.761 0.95913 12.7877L1.03984 12.8234L2.5632 13.4113C5.14586 14.4178 7.81931 15.4511 10.4423 16.4755C10.6542 16.5557 10.8963 16.7517 10.9367 16.9655C11.3806 18.9341 11.8244 20.9383 12.2482 22.8713C12.6921 24.8755 13.146 26.9421 13.6101 28.9731C13.6404 29.0978 13.7715 29.2492 13.8321 29.267C13.8825 29.2759 14.0641 29.2136 14.1549 29.1334C16.6064 27.0846 19.2294 24.8755 22.1652 22.3813C22.4375 22.1497 22.6797 22.123 23.0025 22.2834C24.9193 23.2276 26.8866 24.1807 28.7832 25.1071L29.5499 25.4812C29.6508 25.5258 29.7618 25.5703 29.8425 25.6059C29.8526 25.6148 29.8728 25.6149 29.8829 25.6238C30.1351 25.6059 30.1754 25.4901 30.2561 25.214L31.3659 21.161C32.1629 18.2393 32.9599 15.3264 33.7669 12.4047C34.8868 8.31605 35.8956 4.61934 36.9448 0.833561C37.0255 0.557422 36.9852 0.512883 36.9347 0.48616C36.8944 0.468345 36.8237 0.459437 36.743 0.459437ZM13.9834 28.1981L13.6606 26.755C13.5395 26.1939 13.4184 25.6594 13.2974 25.116L12.8837 23.2454C12.4298 21.1877 11.9657 19.0588 11.4915 16.9655C11.4108 16.618 11.5924 16.4577 11.7942 16.333C17.4337 12.8501 23.0731 9.36716 28.7025 5.87533L33.2928 3.05158C33.3735 2.99814 33.4945 2.93578 33.666 2.92688L34.2209 2.90015L33.8174 3.36335C33.7669 3.42571 33.7165 3.47916 33.666 3.54151L30.5991 6.82846C26.7655 10.9349 22.7906 15.1839 18.8965 19.3616C18.6342 19.6467 18.4021 19.9763 18.2105 20.3237C17.3227 21.9894 16.4248 23.6908 15.5572 25.3387C15.2243 25.9712 14.8913 26.6125 14.5483 27.245C14.508 27.3162 14.4676 27.3875 14.4172 27.4766C14.3869 27.5211 14.3567 27.5746 14.3163 27.6369L13.9834 28.1981ZM32.4857 4.08488L29.0052 6.24946C23.3657 9.73238 17.7262 13.2242 12.0968 16.7071C11.9859 16.7784 11.9859 16.7873 12.006 16.8853C12.4802 18.9786 12.9443 21.1075 13.3983 23.1652L13.8119 25.0358C13.9329 25.5703 14.0439 26.1048 14.1751 26.666L14.2154 26.8441C14.5181 26.274 14.8106 25.7128 15.1133 25.1427C15.9809 23.4948 16.8788 21.7934 17.7666 20.1277C17.9683 19.7447 18.2306 19.3883 18.5131 19.0766C22.4073 14.8989 26.3721 10.6499 30.2158 6.54341L32.4857 4.08488ZM15.7085 27.1826L15.305 26.9421L18.836 20.2613L22.0643 21.838L15.7085 27.1826ZM19.0579 20.867L16.334 26.0335L21.2168 21.9181L19.0579 20.867ZM29.7517 25.018L19.1285 19.8426L35.482 2.33897L35.9259 2.52603L29.7517 25.018ZM19.9053 19.7179L29.4188 24.35L35.1793 3.36335L19.9053 19.7179ZM11.0073 16.1192C10.9165 16.1192 10.8257 16.1014 10.7147 16.0569C8.57595 15.2195 6.39683 14.3733 4.27825 13.5538L2.29081 12.7788C2.25046 12.761 2.2101 12.7432 2.16975 12.7165C2.13948 12.7076 2.10922 12.6897 2.06887 12.663L1.59471 12.4314L32.8489 2.16081L33.1112 2.54384L32.9397 2.66855C32.9195 2.68637 32.8892 2.70418 32.8691 2.722C32.8085 2.76654 32.7581 2.80217 32.6875 2.84671L26.4124 6.73047C21.4388 9.80364 16.4652 12.8857 11.4814 15.9678C11.3705 16.0212 11.2191 16.1192 11.0073 16.1192ZM2.83559 12.5027L4.49011 13.144C6.5986 13.9635 8.78781 14.8098 10.9266 15.6471C11.0174 15.6827 11.0375 15.6827 11.1889 15.5848C16.1625 12.5027 21.1361 9.42951 26.1199 6.34744L31.3154 3.13175L2.83559 12.5027Z" fill="#FF9900"/>
</svg>
