<svg width="35" height="35" viewBox="0 0 35 35" fill="none" xmlns="http://www.w3.org/2000/svg">
<g clip-path="url(#clip0)">
<path d="M31.394 9.40409C32.4963 8.31623 33.4875 7.14271 34.1882 5.75504C34.6838 4.76997 35.0513 3.74207 35 2.61138C34.9231 1.09523 33.9319 0.0587647 32.4194 -0.00119612C31.864 -0.0183278 31.2744 0.041633 30.7361 0.195818C29.0698 0.666939 27.6514 1.60061 26.4209 2.79127C24.9512 4.20463 23.5242 5.65226 22.1057 7.09131C21.8323 7.36542 21.593 7.49391 21.1914 7.40825C20.5676 7.26263 19.9182 7.18554 19.2432 7.07418C19.696 6.5945 20.1318 6.17477 20.5164 5.72078C21.0974 5.01838 21.0974 3.96479 20.542 3.24526C19.7559 2.21736 18.363 2.14026 17.406 3.0825C16.4062 4.06758 15.4236 5.06978 14.4238 6.05485C14.3213 6.15764 14.1248 6.23473 13.988 6.2176C12.6978 6.02059 11.4075 5.80644 10.1086 5.59229C7.71606 5.19827 5.32349 4.80424 2.93091 4.42734C1.6748 4.22176 0.529785 5.01838 0.299072 6.25186C0.102539 7.27976 0.512695 8.07639 1.34155 8.67599C4.47754 10.9459 7.61352 13.2245 10.7495 15.503C11.3135 15.9141 11.8689 16.3167 12.4927 16.7707C12.2705 16.9677 12.074 17.1305 11.886 17.3104C10.553 18.6124 9.23706 19.9229 8.27148 21.5333C8.13477 21.756 8.00659 21.7989 7.75024 21.7218C6.16089 21.2421 4.57153 20.771 2.97363 20.3084C1.90552 20 1.01685 20.2656 0.410156 21.1307C0.222168 21.4134 0.136719 21.756 0 22.0644C0 22.2957 0 22.5184 0 22.7497C0.196533 23.5977 0.777588 24.1202 1.46973 24.5827C2.64038 25.3708 3.79394 26.1846 4.95605 26.9897C5.05859 27.0583 5.15259 27.1354 5.26367 27.2125C5.06714 27.675 4.8706 28.1119 4.68262 28.5487C4.46899 29.0541 4.25537 29.5595 4.05884 30.0649C3.94775 30.339 3.97339 30.6045 4.19556 30.8272C4.41772 31.0585 4.69116 31.0842 4.98169 30.9729C5.07568 30.9386 5.16968 30.9043 5.26367 30.8615C6.10962 30.5017 6.95557 30.1505 7.8186 29.7822C7.89551 29.8936 7.97241 29.9964 8.04077 30.0906C8.93799 31.384 9.84375 32.6689 10.7153 33.9795C11.4416 35.0673 12.5781 35.1787 13.6035 34.7675C14.5862 34.3821 15.0134 33.2514 14.7229 32.1806C14.552 31.5553 14.3555 30.93 14.176 30.3133C13.8428 29.1912 13.5181 28.069 13.1763 26.9127C15.1587 25.8077 16.6541 24.1459 18.2434 22.5526C18.3374 22.6811 18.4143 22.7754 18.4912 22.8781C20.8667 26.1674 23.2422 29.4567 25.6262 32.7546C25.9509 33.2085 26.2671 33.6797 26.6431 34.0823C27.2498 34.7418 28.0273 34.9474 28.8904 34.7076C29.7192 34.4763 30.2576 33.9195 30.4968 33.0886C30.6934 32.3862 30.4883 31.7095 30.3857 31.0243C29.856 27.7007 29.3176 24.3772 28.7708 21.0622C28.7366 20.8566 28.7793 20.7281 28.9246 20.5825C29.7021 19.8116 30.4797 19.0407 31.2488 18.2612C31.5478 17.9614 31.8555 17.6701 32.1204 17.3446C32.6758 16.6679 32.6929 15.6657 32.2058 14.9462C31.7102 14.2095 30.7874 13.8412 29.9585 14.1324C29.574 14.2695 29.2236 14.535 28.9075 14.8006C28.5571 15.0832 28.2666 15.4259 27.9077 15.7856C27.7795 15.0061 27.6685 14.2952 27.5403 13.5928C27.4976 13.3615 27.5659 13.2159 27.7283 13.0531C28.9587 11.8454 30.1721 10.6204 31.394 9.40409ZM32.5476 1.3779C33.2227 1.47213 33.6157 1.97751 33.6328 2.73987C33.6414 3.57076 33.3679 4.32455 32.9663 5.12974C32.4365 3.56219 31.4368 2.53429 29.8645 2.02034C30.7446 1.58348 31.5991 1.24085 32.5476 1.3779ZM18.4143 4.00761C18.7134 3.70781 19.1321 3.73351 19.3884 4.00761C19.6448 4.28172 19.6448 4.68432 19.3457 4.99269C18.7903 5.5666 18.2263 6.12338 17.6538 6.68872C17.594 6.74868 17.4915 6.80008 17.4231 6.79151C16.9275 6.72298 16.4404 6.63733 15.8936 6.5431C16.7737 5.65225 17.5854 4.8128 18.4143 4.00761ZM2.15332 7.571C1.88843 7.37399 1.66626 7.16841 1.62354 6.80864C1.55518 6.15764 2.06787 5.66939 2.73437 5.76361C3.6145 5.8921 4.48608 6.04628 5.35767 6.1919C8.64746 6.73155 11.9373 7.26263 15.227 7.80228C16.9531 8.08495 18.6792 8.36762 20.4138 8.6503C18.064 11.0059 15.7312 13.3444 13.3728 15.7085C13.3643 15.7 13.3044 15.6657 13.2361 15.6229C9.55322 12.9418 5.85327 10.2607 2.15332 7.571ZM5.6311 25.8077C4.36645 24.9339 3.11035 24.0602 1.8457 23.1779C1.44409 22.9038 1.29883 22.5612 1.40137 22.1929C1.53809 21.6961 1.99951 21.4648 2.57202 21.6361C3.88794 22.0216 5.2124 22.4156 6.52832 22.8011C6.79321 22.8781 7.04956 22.9552 7.34863 23.0409C6.83594 24.026 6.34888 24.9682 5.84473 25.9276C5.75928 25.8848 5.69092 25.8505 5.6311 25.8077ZM13.4155 32.5918C13.595 33.2342 13.0823 33.791 12.45 33.6454C12.2705 33.6026 12.0569 33.4741 11.9543 33.3285C10.9973 31.9751 10.0574 30.6045 9.0918 29.2083C10.0745 28.6943 11.0059 28.2061 11.9543 27.7178C11.9714 27.735 12.0142 27.7521 12.0227 27.7778C12.4841 29.3796 12.9626 30.9814 13.4155 32.5918ZM28.3264 17.3275C28.8647 16.7707 29.4116 16.2225 29.967 15.6828C30.3003 15.3573 30.6848 15.3488 30.9753 15.6229C31.2573 15.8884 31.2573 16.3082 30.9497 16.6337C30.1465 17.456 29.3262 18.2612 28.4546 19.1349C28.3691 18.5867 28.2837 18.107 28.2239 17.6273C28.2068 17.5245 28.2666 17.396 28.3264 17.3275ZM28.4033 27.3495C28.6597 28.9513 28.9331 30.5446 29.1724 32.1464C29.2151 32.4119 29.1894 32.7289 29.0784 32.9687C28.8306 33.4912 28.1128 33.594 27.677 33.2085C27.583 33.1229 27.5061 33.0287 27.4292 32.9259C24.7546 29.2169 22.0715 25.5164 19.397 21.8074C19.3542 21.7475 19.3115 21.6789 19.2859 21.6447C21.6357 19.2891 23.977 16.942 26.3184 14.5864C26.4465 15.3745 26.5833 16.1968 26.72 17.0106C27.2839 20.454 27.8479 23.8975 28.4033 27.3495ZM15.3467 23.5463C14.3127 24.5827 13.125 25.4051 11.8774 26.1417C10.0403 27.2382 8.11767 28.1718 6.15234 29.0198C6.10107 29.037 6.0498 29.0541 5.93018 29.0969C7.28027 26.0732 8.63037 23.1437 10.6555 20.5911C10.8948 20.2913 11.1597 20 11.4331 19.7259C16.6797 14.4665 21.9263 9.21564 27.1643 3.96479C27.2668 3.862 27.395 3.76777 27.489 3.65642C27.8735 3.19386 28.3435 3.12533 28.9246 3.20243C30.7019 3.45084 31.9666 5.00125 31.7957 6.80008C31.7871 6.91143 31.7187 7.03992 31.6418 7.12558C30.8899 7.9222 30.1465 8.71882 29.3689 9.49831C24.6948 14.1838 20.0208 18.8608 15.3467 23.5463Z" fill="#007FC0"/>
<path d="M24.1223 9.90223C23.5498 10.4676 22.9773 11.0415 22.4134 11.6154C22.3279 11.7011 22.2425 11.7953 22.1827 11.9066C21.9349 12.3606 22.2681 12.9003 22.9004 12.8917C22.9944 12.8317 23.191 12.7546 23.3448 12.609C23.9429 12.0351 24.524 11.4441 25.105 10.853C25.4468 10.5018 25.4724 10.0821 25.1819 9.79944C24.8743 9.5082 24.4898 9.54247 24.1223 9.90223Z" fill="#007FC0"/>
<path d="M20.7043 13.4998C20.6103 13.5597 20.4138 13.6454 20.26 13.7825C19.6704 14.3564 19.0893 14.9388 18.5168 15.5213C18.1665 15.8725 18.1323 16.2922 18.4228 16.5835C18.7219 16.8833 19.115 16.849 19.4824 16.4893C20.0634 15.9154 20.6445 15.3329 21.2255 14.7418C21.3024 14.6647 21.3794 14.5705 21.4306 14.4763C21.6699 14.0223 21.3366 13.4827 20.7043 13.4998Z" fill="#007FC0"/>
<path d="M16.9786 17.3632C16.6283 17.3546 16.295 17.6801 16.295 18.0313C16.2865 18.3911 16.6026 18.708 16.9615 18.7166C17.329 18.7252 17.6366 18.4254 17.6451 18.0485C17.6451 17.6801 17.3461 17.3632 16.9786 17.3632Z" fill="#007FC0"/>
</g>
<defs>
<clipPath id="clip0">
<rect width="35" height="35" fill="white"/>
</clipPath>
</defs>
</svg>
