<svg width="323" height="242" viewBox="0 0 323 242" fill="none" xmlns="http://www.w3.org/2000/svg">
<path d="M0.5 242C119.389 242 184.286 176.226 202.124 143C205.691 146.638 213.316 153.332 215.273 151.003C215.273 217.359 269.091 239.09 296 242C197.537 242.243 0.989256 242.582 0.5 242Z" fill="white"/>
<g clip-path="url(#clip0)">
<path d="M198.517 169.479C198.517 169.479 191.033 149.058 195.978 138.516C200.922 127.974 221.673 121.078 221.673 121.078C221.673 121.078 228.908 141.108 223.998 151.577C219.088 162.046 198.517 169.479 198.517 169.479V169.479Z" fill="#FFAC33"/>
<path d="M215.541 151.749C221.148 149.723 224.036 143.496 221.992 137.839C219.948 132.183 213.746 129.241 208.14 131.266C202.534 133.292 199.646 139.52 201.69 145.176C203.733 150.832 209.935 153.775 215.541 151.749Z" fill="#FFCC4D"/>
<path d="M277.748 0.172217C277.493 0.299485 277.584 0.344298 277.515 0.0617244C239.549 19.5806 222.755 43.7593 216.022 65.182C215.785 65.9409 215.557 66.7028 215.338 67.4676L215.331 67.4898C208.476 91.5853 214.119 112.161 215.954 117.705L214.246 118.322L214.405 124.105L223.726 128.525L228.227 124.951L227.605 123.229C231.63 121.685 235.507 119.78 239.191 117.538L239.196 117.54C240.327 116.776 240.835 117.096 243.134 123.458L248.734 138.957C249.86 142.072 251.899 142.675 252.986 140.329C255.613 134.653 256.233 133.27 262.196 120.398C266.707 110.655 266.077 106.156 260.364 99.5292C276.023 81.1421 288.946 50.2261 277.748 0.172217Z" fill="#E94B35"/>
<path d="M223.725 128.525L214.405 124.105L214.246 118.322L217.661 117.088L226.982 121.508L228.226 124.952L223.725 128.525ZM213.133 77.8395C209.77 77.7115 209.095 77.3517 205.68 78.5859C202.264 79.8202 199.394 83.5438 196.49 89.8167C191.876 99.7761 191.219 101.143 187.241 109.723C185.942 112.529 189.223 111.789 193.897 110.1C202.834 106.871 209.697 104.147 213.21 105.886C217.849 108.181 213.133 77.8395 213.133 77.8395ZM277.685 0.000313048C279.689 8.95836 280.972 17.4621 281.55 25.2336C278.532 22.4885 274.459 19.2997 269.962 17.21C264.969 14.8867 259.484 13.9252 255.451 13.527C264.666 6.82903 272.448 2.69509 277.685 0.000313048Z" fill="#C23824"/>
<path opacity="0.3" d="M260.364 99.5292C266.077 106.154 266.829 110.409 262.306 120.154C261.39 122.128 253.828 138.518 252.984 140.33C251.894 142.674 249.916 142.052 248.734 138.957L248.329 137.834C251.585 130.816 259.314 116.463 260.053 111.504C260.487 108.6 258.381 104.994 256.942 102.894C252.381 107.968 239.822 117.051 239.196 117.54C234.197 120.604 230.074 122.226 227.605 123.229L227.196 122.1C227.196 122.1 272.375 86.9612 277.686 -3.70195e-06C289 50.516 276.023 81.142 260.364 99.5292Z" fill="white"/>
<path d="M256.683 62.1027C250.562 64.3145 243.768 61.0926 241.538 54.9208C239.308 48.749 242.473 41.928 248.594 39.7162C254.715 37.5044 261.509 40.7264 263.739 46.8981C265.97 53.0699 262.804 59.8909 256.683 62.1027Z" fill="white"/>
<path d="M249.215 41.4378C251.707 40.5376 254.456 40.6721 256.86 41.8118C259.263 42.9514 261.123 45.0029 262.031 47.5148C262.938 50.0267 262.819 52.7934 261.7 55.2061C260.58 57.6188 258.551 59.48 256.06 60.3802C253.569 61.2804 250.819 61.1459 248.416 60.0062C246.013 58.8666 244.152 56.8151 243.245 54.3032C242.337 51.7913 242.456 49.0246 243.576 46.6119C244.696 44.1992 246.724 42.338 249.215 41.4378ZM247.971 37.9937C240.906 40.5468 237.255 48.4151 239.829 55.5375C242.403 62.6598 250.239 66.3773 257.305 63.8243C264.37 61.2712 268.02 53.4029 265.446 46.2806C262.873 39.1582 255.036 35.4407 247.971 37.9937Z" fill="#C23824"/>
</g>
<defs>
<clipPath id="clip0">
<rect width="132.123" height="132.487" fill="white" transform="matrix(-0.940481 0.339845 0.339845 0.940481 277.686 0)"/>
</clipPath>
</defs>
</svg>
