<svg width="18" height="18" viewBox="0 0 18 18" fill="none" xmlns="http://www.w3.org/2000/svg">
<path d="M6.94818 1.36197e-08C8.24178 -8.09607e-05 9.50972 0.360908 10.6093 1.04233C11.7088 1.72375 12.5963 2.69854 13.1718 3.85697C13.7473 5.0154 13.988 6.31147 13.8668 7.59928C13.7456 8.88708 13.2673 10.1155 12.4857 11.1462L17.7251 16.3852C17.8931 16.5544 17.991 16.7808 17.9994 17.0192C18.0078 17.2575 17.926 17.4902 17.7704 17.6709C17.6147 17.8516 17.3966 17.9669 17.1597 17.9939C16.9227 18.0209 16.6843 17.9575 16.492 17.8165L16.3859 17.7243L11.1465 12.4853C10.2679 13.1513 9.2434 13.5987 8.15768 13.7905C7.07197 13.9823 5.9562 13.913 4.90256 13.5884C3.84891 13.2637 2.88765 12.693 2.09818 11.9235C1.30872 11.1539 0.713719 10.2076 0.362342 9.16262C0.0109656 8.11767 -0.0866998 7.00411 0.0774159 5.91395C0.241532 4.82379 0.662717 3.78832 1.30617 2.89311C1.94963 1.9979 2.79688 1.26863 3.77793 0.76557C4.75898 0.262508 5.84566 9.10479e-05 6.94818 1.36197e-08ZM6.94818 1.89497C5.60788 1.89497 4.32246 2.42736 3.37472 3.37503C2.42698 4.3227 1.89454 5.60801 1.89454 6.94822C1.89454 8.28842 2.42698 9.57374 3.37472 10.5214C4.32246 11.4691 5.60788 12.0015 6.94818 12.0015C8.28849 12.0015 9.57391 11.4691 10.5217 10.5214C11.4694 9.57374 12.0018 8.28842 12.0018 6.94822C12.0018 5.60801 11.4694 4.3227 10.5217 3.37503C9.57391 2.42736 8.28849 1.89497 6.94818 1.89497Z" fill="white"/>
</svg>
