<svg width="56" height="38" viewBox="0 0 56 38" fill="none" xmlns="http://www.w3.org/2000/svg">
<g clip-path="url(#clip0)">
<path style ="fill: #FF9900;" d="M51.8036 27.2745C50.9649 28.785 49.5447 29.4607 47.9812 29.9181C45.5567 30.6281 43.051 30.7554 40.5511 30.7896C40.4553 30.7966 40.3595 30.8037 40.1965 30.8103C40.2305 31.4911 40.2801 32.1617 40.3012 32.8398C40.3392 33.6966 39.6497 34.2273 38.9325 33.917C38.525 33.7381 38.3513 33.4057 38.331 32.9838C38.2921 32.2615 38.2532 31.5393 38.2112 30.8973C34.3098 30.4118 30.4473 29.9344 26.4943 29.4382C26.3818 29.9808 26.2425 30.6526 26.1032 31.3244C26.063 31.5182 26.0228 31.712 25.9827 31.9058C25.8336 32.4947 25.363 32.8148 24.8075 32.6997C24.2519 32.5845 23.9318 32.1139 24.0448 31.504C24.2086 30.6486 24.3983 29.7986 24.5564 29.0364C20.7707 27.9281 17.0238 26.8279 13.2279 25.704C12.934 26.2764 12.6005 26.9753 12.2309 27.6532C11.8274 28.3646 10.8387 28.3887 10.5254 27.6904C10.3954 27.4074 10.4423 26.986 10.5481 26.671C10.7171 26.1805 10.9998 25.7271 11.2464 25.2527C11.3146 25.1186 11.3543 24.9921 11.4252 24.8451C10.3499 24.3123 9.2924 23.8235 8.25854 23.2858C6.82514 22.5305 5.46751 21.6696 4.26414 20.5846C3.18681 19.6067 2.3666 18.4934 2.21931 16.9941C2.29431 16.6324 2.36663 16.2836 2.44163 15.9218C3.20453 14.5169 4.47993 13.8247 5.93478 13.3717C8.31557 12.6122 10.7852 12.464 13.249 12.4089C14.3437 12.3933 15.4535 12.4347 16.5633 12.4762C16.8324 12.4781 16.9674 12.4118 17.0883 12.1538C17.3772 11.54 17.6894 10.9445 18.0376 10.3699C18.3648 9.83137 18.9298 9.70596 19.3962 9.9913C19.8857 10.2949 19.9879 10.8416 19.707 11.4167C19.2472 12.3993 18.8262 13.39 18.3923 14.378C18.2135 14.7856 18.3274 15.1461 18.6855 15.3686C19.7162 15.9865 20.7023 16.6895 21.8093 17.1346C26.0099 18.841 30.382 19.7205 34.9318 19.6128C35.7574 19.5953 36.5844 19.376 37.4109 19.224C37.7892 19.1542 37.9618 18.907 38.019 18.5012C39.0723 11.8609 33.392 6.04794 26.7327 6.97142C25.8028 7.10202 25.2794 6.83181 25.1986 6.18175C25.1151 5.5446 25.5345 5.14647 26.4359 5.02343C33.5644 3.98164 40.0432 9.5829 40.0878 16.8415C40.093 17.2064 40.1981 17.3495 40.5233 17.4708C43.3698 18.5595 46.1583 19.7979 48.6637 21.5571C49.0396 21.8236 49.4128 22.1031 49.7549 22.4031C50.92 23.4127 51.8667 24.5657 52.013 26.1996C51.9509 26.564 51.8759 26.9257 51.8036 27.2745ZM16.3036 14.4435C13.3623 14.3323 10.4851 14.3017 7.665 14.9701C6.81484 15.1712 5.95618 15.4782 5.17187 15.8815C4.08632 16.438 3.95192 17.1512 4.6902 18.1397C5.0157 18.5845 5.41383 19.0039 5.83827 19.3614C7.75472 20.9715 9.9699 22.0506 12.2453 23.0344C15.7073 24.5337 19.2912 25.6406 22.9491 26.5202C28.8001 27.9355 34.7141 28.8517 40.7538 28.8373C43.0465 28.8276 45.3375 28.6962 47.5391 28.0208C48.1875 27.8184 48.8314 27.5072 49.4058 27.1412C50.1077 26.6804 50.2202 26.1378 49.7567 25.4488C49.3649 24.869 48.8848 24.3248 48.3602 23.8657C46.6112 22.3577 44.5559 21.3522 42.4588 20.4188C41.6204 20.0429 40.7714 19.7186 39.9277 19.3685C39.4024 20.4723 38.9594 20.9195 37.8084 21.2063C36.9556 21.4203 36.0694 21.6004 35.1894 21.62C30.3727 21.7802 25.7578 20.8369 21.2778 19.113C19.9437 18.5939 18.6412 17.987 17.53 17.0424C16.7533 16.3693 16.1557 15.6121 16.3036 14.4435Z" fill="#0180C1"/>
<path style ="fill: #FF9900;" d="M21.8275 8.66293C21.2978 8.55311 20.9443 8.04862 21.0541 7.51893C21.151 6.98656 21.7126 6.61789 22.2525 6.74331C22.7795 6.86605 23.1018 7.39102 22.9947 7.9078C22.8693 8.44773 22.3572 8.77275 21.8275 8.66293Z" fill="#0180C1"/>
<path style ="fill: #FF9900;" d="M14.2242 19.0792C14.1117 19.6218 13.6228 19.9651 13.0931 19.8553C12.5478 19.7557 12.1894 19.2098 12.3148 18.6698C12.4376 18.1428 12.9523 17.8049 13.482 17.9147C13.9961 18.0348 14.3238 18.5339 14.2242 19.0792Z" fill="#0180C1"/>
<path style ="fill: #FF9900;" d="M39.9336 24.4094C40.0435 23.8797 40.5582 23.5418 41.0879 23.6516C41.6047 23.7587 41.9555 24.2761 41.8586 24.8085C41.759 25.3538 41.2131 25.7122 40.6732 25.5868C40.1488 25.4511 39.8238 24.9391 39.9336 24.4094Z" fill="#0180C1"/>
<path style ="fill: #FF9900;" d="M26.3964 24.9714C25.8693 24.8487 25.5287 24.3469 25.6385 23.8172C25.751 23.2745 26.2916 22.942 26.8445 23.0701C27.3688 23.2057 27.6912 23.7307 27.5711 24.2448C27.4484 24.7718 26.9234 25.0941 26.3964 24.9714Z" fill="#0180C1"/>
<path style ="fill: #FF9900;" d="M19.9155 21.135C20.4425 21.2578 20.7804 21.7725 20.6733 22.2893C20.5608 22.8319 20.0046 23.1747 19.4673 23.0364C18.943 22.9007 18.6309 22.3913 18.7536 21.8643C18.8764 21.3373 19.3728 21.0225 19.9155 21.135Z" fill="#0180C1"/>
<path style ="fill: #FF9900;" d="M34.6649 25.1899C34.5551 25.7196 34.0533 26.0602 33.5209 25.9633C32.9756 25.8637 32.6172 25.3178 32.7426 24.7778C32.8653 24.2508 33.3774 23.9258 33.9044 24.0485C34.447 24.161 34.7774 24.6473 34.6649 25.1899Z" fill="#0180C1"/>
</g>
<defs>
<clipPath id="clip0">
<rect width="50.6652" height="28.1561" fill="white" transform="translate(5.71582) rotate(11.7133)"/>
</clipPath>
</defs>
</svg>
